<svg width="131" height="129" viewBox="0 0 131 129" fill="none" xmlns="http://www.w3.org/2000/svg">
<path d="M78.9746 94.3333C78.9918 94.5955 79 94.8598 79 95.1253C78.9998 103.432 70.4933 110.166 60 110.166C49.5067 110.166 41.0002 103.432 41 95.1253C41 94.8598 41.0082 94.5955 41.0254 94.3333H78.9746Z" fill="#9A9A9A"/>
<ellipse cx="60" cy="94.5972" rx="19" ry="9.76389" fill="white"/>
<path d="M100.832 30.3585C102.877 30.9328 102.919 33.8174 100.891 34.4504L63.0496 46.2608C61.6878 46.6858 60.3005 45.6808 60.2799 44.2544L59.9552 21.7294C59.9346 20.303 61.2924 19.2584 62.6659 19.644L100.832 30.3585Z" fill="#BA3131"/>
<path d="M60.0196 93.2499L60.0196 19.9291" stroke="#B0B0B0" stroke-width="3" stroke-linecap="round"/>
</svg>
