<svg width="93" height="95" viewBox="0 0 93 95" fill="none" xmlns="http://www.w3.org/2000/svg">
<path d="M63.9746 78.3333C63.9918 78.5955 64 78.8598 64 79.1253C63.9998 87.4325 55.4933 94.1663 45 94.1663C34.5067 94.1663 26.0002 87.4325 26 79.1253C26 78.8598 26.0082 78.5955 26.0254 78.3333H63.9746Z" fill="#9A9A9A"/>
<ellipse cx="45" cy="78.5972" rx="19" ry="9.76389" fill="white"/>
<path d="M85.8317 14.3585C87.8772 14.9328 87.9188 17.8174 85.8907 18.4504L48.0496 30.2608C46.6878 30.6858 45.3005 29.6808 45.2799 28.2544L44.9552 5.72942C44.9346 4.30299 46.2924 3.25838 47.6659 3.64397L85.8317 14.3585Z" fill="#BA3131"/>
<path d="M45.0196 77.2499L45.0196 3.92913" stroke="#B0B0B0" stroke-width="3" stroke-linecap="round"/>
</svg>
