<svg width="96" height="92" viewBox="0 0 96 92" fill="none" xmlns="http://www.w3.org/2000/svg">
<path d="M47.244 82.7261C46.4742 84.0936 44.4281 83.8142 44.0532 82.2903L39.281 62.8959C38.9889 61.7087 39.9857 60.6008 41.197 60.7662L55.7668 62.7559C56.9782 62.9214 57.6413 64.256 57.0416 65.3214L47.244 82.7261Z" fill="#BA3131"/>
<path d="M9.97475 65.6255C8.42065 65.8433 7.40135 64.0473 8.38517 62.8247L20.9066 47.2642C21.6731 46.3117 23.1586 46.4318 23.7621 47.4951L31.0202 60.284C31.6237 61.3473 30.9652 62.6842 29.7544 62.8539L9.97475 65.6255Z" fill="#BA3131"/>
<path d="M71.4043 8.63364C72.6643 7.69824 74.4192 8.7868 74.141 10.3312L70.6001 29.9877C70.3834 31.191 69.0218 31.7969 67.9828 31.1524L55.4867 23.401C54.4478 22.7566 54.3857 21.2675 55.3673 20.5388L71.4043 8.63364Z" fill="#8D2222"/>
<path d="M85.6808 66.3986C86.4799 67.7492 85.2146 69.3812 83.7075 68.9437L64.5264 63.3757C63.3523 63.0349 62.8914 61.6176 63.6406 60.6514L72.6507 49.0302C73.3999 48.0639 74.8873 48.1572 75.5099 49.2094L85.6808 66.3986Z" fill="#BA3131"/>
<path d="M15.499 17.7919C14.755 16.4102 16.0852 14.8305 17.5734 15.3284L36.5142 21.6656C37.6737 22.0535 38.077 23.4882 37.2895 24.4234L27.8179 35.6718C27.0304 36.607 25.548 36.4538 24.9683 35.3773L15.499 17.7919Z" fill="#8D2222"/>
<ellipse cx="49.7905" cy="45.0279" rx="32.4721" ry="31.1732" fill="black"/>
<path d="M72.5815 39.5195C69.633 48.4137 63.9748 39.3416 52.8 35.6371C41.6252 31.9327 29.1655 34.9987 32.1139 26.1044C35.0624 17.2102 46.5116 13.0031 57.6864 16.7075C68.8612 20.412 75.5299 30.6253 72.5815 39.5195Z" fill="#524A4A" fill-opacity="0.52"/>
<path d="M76.3853 43.0014C72.8893 53.5473 66.1803 42.7904 52.9303 38.398C39.6803 34.0056 24.9068 37.641 28.4028 27.0951C31.8988 16.5492 45.4741 11.5607 58.7241 15.9531C71.9741 20.3456 79.8813 32.4555 76.3853 43.0014Z" fill="#524A4A" fill-opacity="0.49"/>
<path d="M87.1619 32.2446C88.7279 32.3464 89.3619 34.3117 88.1507 35.3095L72.7348 48.0085C71.7911 48.7859 70.3608 48.3671 69.9854 47.2036L65.4705 33.2089C65.0951 32.0453 66.011 30.8696 67.2311 30.9489L87.1619 32.2446Z" fill="#BA3131"/>
<path d="M11.1868 38.256C10.0277 37.198 10.7607 35.2674 12.3298 35.2452L32.3007 34.9625C33.5232 34.9452 34.3782 36.1658 33.9443 37.3089L28.7251 51.0564C28.2911 52.1995 26.8415 52.5451 25.9384 51.7209L11.1868 38.256Z" fill="#BA3131"/>
<path d="M27.3203 82.4652C26.1094 83.4635 24.3015 82.4655 24.5008 80.909L27.0375 61.0978C27.1928 59.8851 28.5218 59.2108 29.5922 59.8016L42.4663 66.9075C43.5367 67.4983 43.6744 68.9822 42.7311 69.7599L27.3203 82.4652Z" fill="#BA3131"/>
<path d="M47.2768 7.74243C47.8021 6.26367 49.8658 6.19 50.4952 7.62754L58.5055 25.9237C58.9959 27.0437 58.2027 28.3054 56.9808 28.3491L42.2852 28.8737C41.0634 28.9173 40.1823 27.7153 40.5915 26.5632L47.2768 7.74243Z" fill="#BA3131"/>
<path d="M69.0995 82.822C69.0606 84.3908 67.1222 85.103 66.0767 83.9327L52.7702 69.038C51.9557 68.1262 52.3168 66.6803 53.4644 66.2586L67.267 61.1867C68.4146 60.765 69.626 61.633 69.5956 62.8552L69.0995 82.822Z" fill="#BA3131"/>
</svg>
